<svg width="161" height="154" viewBox="0 0 161 154" fill="none" xmlns="http://www.w3.org/2000/svg">
<path d="M80.0407 105.244C79.4569 105.616 79.0854 105.881 78.7139 106.146C75.3704 109.012 71.9738 111.878 68.6303 114.744C67.675 115.54 66.7727 116.336 65.8705 117.238C65.3398 117.769 64.8621 118.406 64.4376 119.043C63.4823 120.582 63.7476 121.802 65.2336 122.917C65.7644 123.289 66.2951 123.607 66.8789 123.872C70.0101 125.518 73.2475 126.844 76.5911 127.959C77.0687 128.118 77.5463 128.277 78.1301 128.49C77.9179 128.808 77.7586 129.073 77.5464 129.339C71.1246 136.026 65.3398 143.244 59.2896 150.249C59.0242 150.568 58.7589 150.886 58.4935 151.257C58.1751 151.841 58.1751 152.425 58.5996 152.956C58.9711 153.486 59.5549 153.699 60.1918 153.593C60.6694 153.486 61.1471 153.274 61.6248 153.062C62.4739 152.637 63.3761 152.16 64.2253 151.682C64.6499 151.47 65.0744 151.257 65.4459 151.045C67.4096 149.878 69.3733 148.71 71.3369 147.489C72.6106 146.693 73.9375 145.844 75.105 144.889C81.1553 140.059 87.1524 135.23 92.778 129.923C95.5378 127.269 98.5629 124.934 101.482 122.492C101.747 122.227 102.066 122.015 102.331 121.749C103.127 120.794 102.809 119.627 101.588 119.255C101.216 119.149 100.845 119.096 100.473 119.096C97.9791 119.043 95.4847 118.99 92.9903 118.99C92.5657 118.99 92.1942 118.99 91.5043 118.99C92.7249 117.504 93.7333 116.177 94.8478 114.903C96.2808 113.258 97.7137 111.666 99.1467 110.021C99.4651 109.649 99.8366 109.596 100.261 109.596C108.222 109.967 116.024 109.012 123.719 107.102C131.68 105.138 138.632 101.104 144.842 95.7972C148.557 92.6129 150.786 88.5263 151.9 83.856C152.219 82.5292 152.272 81.1493 152.431 79.8225C153.386 72.6048 152.006 65.8115 148.822 59.3368C146.328 54.348 143.196 49.8899 139.534 45.6972C134.174 39.4878 128.018 34.1806 121.384 29.3511C110.345 21.2841 98.5629 14.6501 85.6664 10.0859C78.8201 7.64461 71.8677 5.89324 64.6499 5.2033C55.9991 4.35415 47.4545 4.93794 39.1222 7.64461C30.843 10.3513 24.5805 15.5523 20.2817 23.0886C17.7342 27.4935 15.9828 32.217 15.2398 37.2588C14.2845 44.2112 15.4521 50.8452 18.4772 57.2139C20.6532 61.725 23.466 65.8115 26.5442 69.6858C39.1222 85.6605 55.0969 96.8587 74.362 103.387C75.8481 103.864 77.3341 104.395 78.8201 104.873C79.0854 104.873 79.3508 104.979 80.0407 105.244Z" fill="black"/>
<path d="M75.5791 102.783C74.9953 103.154 74.6238 103.419 74.2523 103.685C70.9087 106.551 67.5121 109.417 64.1686 112.282C63.2133 113.079 62.3111 113.875 61.4088 114.777C60.8781 115.308 60.4005 115.944 59.9759 116.581C59.0206 118.12 59.286 119.341 60.772 120.456C61.3027 120.827 61.8334 121.146 62.4172 121.411C65.5485 123.056 68.7859 124.383 72.1294 125.497C72.607 125.657 73.0847 125.816 73.6685 126.028C73.4562 126.347 73.297 126.612 73.0847 126.877C66.663 133.564 60.8781 140.782 54.8279 147.788C54.5626 148.106 54.2972 148.425 54.0318 148.796C53.7134 149.38 53.7134 149.964 54.138 150.494C54.5095 151.025 55.0933 151.237 55.7301 151.131C56.2078 151.025 56.6854 150.813 57.1631 150.6C58.0122 150.176 58.9145 149.698 59.7636 149.221C60.1882 149.008 60.6128 148.796 60.9843 148.584C62.9479 147.416 64.9116 146.249 66.8753 145.028C68.149 144.232 69.4758 143.383 70.6434 142.427C76.6936 137.598 82.6907 132.768 88.3163 127.461C91.0761 124.807 94.1012 122.472 97.0202 120.031C97.2855 119.766 97.6039 119.553 97.8693 119.288C98.6654 118.333 98.347 117.165 97.1263 116.794C96.7548 116.687 96.3833 116.634 96.0118 116.634C93.5174 116.581 91.023 116.528 88.5286 116.528C88.1041 116.528 87.7325 116.528 87.0426 116.528C88.2633 115.042 89.2716 113.715 90.3862 112.442C91.8191 110.796 93.252 109.204 94.685 107.559C95.0034 107.188 95.3749 107.135 95.7995 107.135C103.76 107.506 111.562 106.551 119.257 104.64C127.218 102.676 134.171 98.643 140.38 93.3358C144.095 90.1515 146.324 86.0649 147.439 81.3946C147.757 80.0678 147.81 78.6879 147.969 77.3611C148.925 70.1433 147.545 63.3501 144.36 56.8753C141.866 51.8866 138.735 47.4285 135.073 43.2358C129.713 37.0264 123.556 31.7192 116.922 26.8896C105.883 18.8227 94.1012 12.1887 81.2047 7.6245C74.3584 5.18319 67.406 3.43181 60.1882 2.74188C51.5375 1.89272 42.9929 2.47652 34.6605 5.18319C26.3813 7.88986 20.1188 13.0909 15.82 20.6271C13.2725 25.0321 11.5212 29.7555 10.7782 34.7974C9.82286 41.7498 10.9904 48.3838 14.0155 54.7524C16.1915 59.2636 19.0043 63.3501 22.0825 67.2244C34.6606 83.199 50.6352 94.3972 69.9004 100.925C71.3864 101.403 72.8724 101.933 74.3584 102.411C74.6238 102.411 74.8891 102.517 75.5791 102.783Z" fill="#FFD622" stroke="black" stroke-width="3"/>
<path d="M117.223 15.5141C117.7 16.0979 118.019 16.5225 118.39 16.894C121.044 19.5476 123.697 22.2542 126.404 24.9078C130.703 29.1005 135.108 33.134 139.354 37.3798C144.448 42.4216 148.747 48.1003 152.144 54.4689C155.541 60.7314 157.61 67.4716 157.929 74.6894C158.194 80.1027 157.557 85.463 155.7 90.611C155.222 91.9378 154.532 93.2646 153.895 94.5383C153.471 95.4405 153.046 96.2897 152.675 97.1919C152.356 97.9349 152.569 98.4656 153.046 98.7841C153.577 99.1025 154.161 98.9433 154.691 98.3064C154.904 98.0411 155.116 97.7757 155.275 97.4573C158.088 93.4238 159.574 88.9127 160.37 84.1362C162.228 72.8319 159.892 62.2705 154.479 52.3461C151.295 46.5081 147.367 41.254 142.803 36.5306C136.965 30.4804 130.65 24.9078 124.228 19.4945C122.742 18.2738 121.15 17.2655 119.558 16.204C118.974 15.7794 118.284 15.461 117.223 15.5141Z" fill="black"/>
<path d="M-0.00012207 36.5247C0.0529499 42.5218 1.43281 48.2536 3.55569 53.7731C6.20929 60.7255 9.87126 67.0942 14.7008 72.7729C16.6645 75.055 18.7343 77.284 20.751 79.4599C21.0695 79.8314 21.494 80.2029 21.8655 80.4683C22.5555 80.999 23.1393 81.0521 23.5638 80.6806C23.9884 80.256 23.9884 79.6722 23.4577 78.9823C23.2454 78.6639 22.9801 78.3985 22.7147 78.1331C20.5387 75.5857 18.3097 73.0382 16.2399 70.4377C10.2428 62.8484 6.10315 54.3038 4.03334 44.8039C2.81268 39.1252 2.97191 33.3934 4.19256 27.7678C4.8825 24.6365 6.42159 21.8237 7.96068 19.064C9.76513 15.7735 11.9411 12.7484 14.5416 10.0417C15.1785 9.35181 15.7623 8.66187 16.3461 7.91886C16.6114 7.60043 16.8237 7.22893 17.036 6.85742C17.2483 6.43285 17.5667 6.00827 17.1421 5.58369C16.7706 5.21219 16.293 5.42448 15.9745 5.63677C15.1254 6.16749 14.3293 6.64513 13.5863 7.282C9.65897 10.5194 6.63387 14.4998 4.40485 19.0109C2.91883 21.9829 1.32666 25.008 0.849016 28.3516C0.530584 31.0583 0.31831 33.7649 -0.00012207 36.5247Z" fill="black"/>
</svg>
