<svg width="210" height="40" viewBox="0 0 210 40" fill="none" xmlns="http://www.w3.org/2000/svg">
<path d="M48.816 22.768H52.056C52.12 23.312 52.368 23.808 52.8 24.256C53.248 24.688 53.832 25.032 54.552 25.288C55.272 25.528 56.08 25.648 56.976 25.648C57.792 25.648 58.464 25.56 58.992 25.384C59.52 25.208 59.912 24.96 60.168 24.64C60.424 24.32 60.552 23.936 60.552 23.488C60.552 23.056 60.392 22.728 60.072 22.504C59.752 22.264 59.248 22.072 58.56 21.928C57.872 21.768 56.968 21.608 55.848 21.448C54.968 21.32 54.136 21.144 53.352 20.92C52.568 20.68 51.872 20.376 51.264 20.008C50.672 19.64 50.2 19.192 49.848 18.664C49.512 18.12 49.344 17.48 49.344 16.744C49.344 15.832 49.6 15.032 50.112 14.344C50.64 13.656 51.416 13.12 52.44 12.736C53.464 12.352 54.72 12.16 56.208 12.16C58.448 12.16 60.168 12.64 61.368 13.6C62.584 14.544 63.176 15.848 63.144 17.512H60.024C59.96 16.568 59.56 15.888 58.824 15.472C58.104 15.056 57.192 14.848 56.088 14.848C55.064 14.848 54.216 15 53.544 15.304C52.888 15.608 52.56 16.128 52.56 16.864C52.56 17.152 52.64 17.408 52.8 17.632C52.96 17.84 53.232 18.024 53.616 18.184C54 18.344 54.52 18.496 55.176 18.64C55.832 18.784 56.648 18.928 57.624 19.072C58.536 19.2 59.36 19.376 60.096 19.6C60.848 19.808 61.488 20.088 62.016 20.44C62.56 20.776 62.976 21.208 63.264 21.736C63.552 22.264 63.696 22.912 63.696 23.68C63.696 24.624 63.448 25.448 62.952 26.152C62.472 26.84 61.72 27.376 60.696 27.76C59.688 28.144 58.376 28.336 56.76 28.336C55.608 28.336 54.592 28.216 53.712 27.976C52.832 27.72 52.072 27.384 51.432 26.968C50.792 26.552 50.272 26.096 49.872 25.6C49.472 25.104 49.184 24.608 49.008 24.112C48.848 23.616 48.784 23.168 48.816 22.768ZM65.2641 16.072H74.5281V18.496H65.2641V16.072ZM68.3361 12.808H71.4561V28H68.3361V12.808ZM90.3103 28H87.1903V16.072H90.3103V28ZM87.3583 22.264L87.3823 23.08C87.3503 23.304 87.2703 23.632 87.1423 24.064C87.0143 24.48 86.8143 24.928 86.5423 25.408C86.2863 25.888 85.9503 26.352 85.5343 26.8C85.1183 27.232 84.6063 27.592 83.9983 27.88C83.3903 28.152 82.6703 28.288 81.8383 28.288C81.1823 28.288 80.5343 28.208 79.8943 28.048C79.2703 27.888 78.7023 27.624 78.1903 27.256C77.6783 26.872 77.2703 26.36 76.9663 25.72C76.6623 25.08 76.5103 24.272 76.5103 23.296V16.072H79.6303V22.768C79.6303 23.536 79.7503 24.144 79.9903 24.592C80.2463 25.024 80.6143 25.328 81.0943 25.504C81.5743 25.68 82.1423 25.768 82.7983 25.768C83.6623 25.768 84.4063 25.584 85.0303 25.216C85.6543 24.832 86.1583 24.368 86.5423 23.824C86.9423 23.28 87.2143 22.76 87.3583 22.264ZM98.9589 28.264C97.7589 28.264 96.6709 28.008 95.6949 27.496C94.7349 26.968 93.9749 26.24 93.4149 25.312C92.8549 24.368 92.5749 23.28 92.5749 22.048C92.5749 20.784 92.8469 19.688 93.3909 18.76C93.9509 17.832 94.7109 17.112 95.6709 16.6C96.6309 16.072 97.7269 15.808 98.9589 15.808C100.031 15.808 100.943 15.968 101.695 16.288C102.447 16.608 103.055 17.056 103.519 17.632C103.983 18.192 104.319 18.848 104.527 19.6C104.751 20.352 104.863 21.168 104.863 22.048C104.863 22.752 104.751 23.472 104.527 24.208C104.303 24.928 103.959 25.6 103.495 26.224C103.031 26.832 102.423 27.328 101.671 27.712C100.919 28.08 100.015 28.264 98.9589 28.264ZM99.9669 25.864C100.911 25.864 101.727 25.704 102.415 25.384C103.103 25.064 103.631 24.616 103.999 24.04C104.367 23.464 104.551 22.8 104.551 22.048C104.551 21.232 104.359 20.544 103.975 19.984C103.607 19.408 103.079 18.968 102.391 18.664C101.719 18.36 100.911 18.208 99.9669 18.208C98.6389 18.208 97.6069 18.56 96.8709 19.264C96.1349 19.968 95.7669 20.896 95.7669 22.048C95.7669 22.816 95.9429 23.488 96.2949 24.064C96.6469 24.624 97.1349 25.064 97.7589 25.384C98.3989 25.704 99.1349 25.864 99.9669 25.864ZM104.551 11.272H107.671V28H104.767C104.719 27.632 104.671 27.16 104.623 26.584C104.575 25.992 104.551 25.44 104.551 24.928V11.272ZM109.954 16.072H113.266L118.426 27.52L115.738 28L109.954 16.072ZM124.546 16.072L116.29 32.8H113.05L116.578 26.224L121.21 16.072H124.546ZM135.319 22.96V20.416H142.423C143.271 20.416 143.943 20.192 144.439 19.744C144.935 19.28 145.183 18.64 145.183 17.824C145.183 16.976 144.935 16.328 144.439 15.88C143.943 15.432 143.271 15.208 142.423 15.208H135.703V28H132.511V12.472H142.135C142.999 12.472 143.807 12.576 144.559 12.784C145.327 12.992 145.991 13.312 146.551 13.744C147.127 14.176 147.575 14.728 147.895 15.4C148.215 16.072 148.375 16.88 148.375 17.824C148.375 18.752 148.215 19.544 147.895 20.2C147.575 20.856 147.127 21.392 146.551 21.808C145.991 22.208 145.327 22.504 144.559 22.696C143.807 22.872 142.999 22.96 142.135 22.96H135.319ZM157.605 28.288C156.101 28.288 154.773 28.048 153.621 27.568C152.485 27.088 151.597 26.392 150.957 25.48C150.317 24.552 149.997 23.416 149.997 22.072C149.997 20.728 150.317 19.592 150.957 18.664C151.597 17.72 152.485 17.008 153.621 16.528C154.773 16.048 156.101 15.808 157.605 15.808C159.109 15.808 160.421 16.048 161.541 16.528C162.677 17.008 163.565 17.72 164.205 18.664C164.845 19.592 165.165 20.728 165.165 22.072C165.165 23.416 164.845 24.552 164.205 25.48C163.565 26.392 162.677 27.088 161.541 27.568C160.421 28.048 159.109 28.288 157.605 28.288ZM157.605 25.888C158.437 25.888 159.181 25.744 159.837 25.456C160.509 25.152 161.037 24.72 161.421 24.16C161.805 23.584 161.997 22.888 161.997 22.072C161.997 21.256 161.805 20.56 161.421 19.984C161.037 19.392 160.517 18.944 159.861 18.64C159.205 18.336 158.453 18.184 157.605 18.184C156.773 18.184 156.021 18.336 155.349 18.64C154.677 18.944 154.141 19.384 153.741 19.96C153.357 20.536 153.165 21.24 153.165 22.072C153.165 22.888 153.357 23.584 153.741 24.16C154.125 24.72 154.653 25.152 155.325 25.456C155.997 25.744 156.757 25.888 157.605 25.888ZM167.471 16.072H170.591V28H167.471V16.072ZM175.175 18.64C174.279 18.64 173.503 18.816 172.847 19.168C172.191 19.504 171.663 19.92 171.263 20.416C170.863 20.912 170.583 21.392 170.423 21.856L170.399 20.536C170.415 20.344 170.479 20.064 170.591 19.696C170.703 19.312 170.871 18.904 171.095 18.472C171.319 18.024 171.615 17.6 171.983 17.2C172.351 16.784 172.799 16.448 173.327 16.192C173.855 15.936 174.471 15.808 175.175 15.808V18.64ZM176.334 16.072H185.598V18.496H176.334V16.072ZM179.406 12.808H182.526V28H179.406V12.808ZM193.225 28.264C192.041 28.264 190.961 28.008 189.985 27.496C189.025 26.968 188.257 26.24 187.681 25.312C187.121 24.368 186.841 23.28 186.841 22.048C186.841 20.784 187.129 19.688 187.705 18.76C188.281 17.832 189.057 17.112 190.033 16.6C191.025 16.072 192.145 15.808 193.393 15.808C194.769 15.808 195.873 16.088 196.705 16.648C197.553 17.192 198.169 17.936 198.553 18.88C198.937 19.824 199.129 20.88 199.129 22.048C199.129 22.752 199.017 23.472 198.793 24.208C198.569 24.928 198.225 25.6 197.761 26.224C197.297 26.832 196.689 27.328 195.937 27.712C195.185 28.08 194.281 28.264 193.225 28.264ZM194.233 25.864C195.177 25.864 195.993 25.704 196.681 25.384C197.369 25.064 197.897 24.616 198.265 24.04C198.633 23.464 198.817 22.8 198.817 22.048C198.817 21.232 198.625 20.544 198.241 19.984C197.873 19.408 197.345 18.976 196.657 18.688C195.985 18.384 195.177 18.232 194.233 18.232C192.905 18.232 191.873 18.584 191.137 19.288C190.401 19.976 190.033 20.896 190.033 22.048C190.033 22.816 190.209 23.488 190.561 24.064C190.913 24.624 191.401 25.064 192.025 25.384C192.665 25.704 193.401 25.864 194.233 25.864ZM198.817 16.072H201.937V28H199.033C199.033 28 199.009 27.848 198.961 27.544C198.929 27.224 198.897 26.824 198.865 26.344C198.833 25.864 198.817 25.392 198.817 24.928V16.072ZM205 11.272H208.12V28H205V11.272Z" fill="#6250FE"/>
<path d="M23.5081 11.3352C23.8344 11.3622 24.0718 11.3622 24.3091 11.3893C26.5934 11.4974 28.848 11.6055 31.1322 11.7136C31.8739 11.7406 32.1705 12.2001 31.9035 12.8217C31.8145 13.0108 31.7255 13.173 31.6069 13.3352C29.5599 16.4432 27.0977 19.1999 24.1904 21.6052C21.7282 23.6051 19.4439 25.7943 17.219 28.0104C15.973 29.2536 14.6974 30.4698 13.3921 31.686C12.1758 32.8211 11.0485 34.0643 10.0102 35.3346C8.91258 36.6318 7.69628 37.848 6.47998 39.0642C6.15366 39.3885 5.70867 39.6317 5.26369 39.8209C4.87803 39.956 4.37372 40.0371 3.9584 39.9831C2.59377 39.7669 1.97079 38.875 2.38611 37.6588C2.6531 36.8751 3.09809 36.1724 3.48374 35.4156C3.63207 35.1454 3.81007 34.8751 3.92873 34.6048C5.88667 30.2536 7.81494 25.8754 9.77288 21.5241C10.9002 18.9566 12.0275 16.4432 13.2141 13.9568C15.35 9.5785 18.5836 6.03806 22.8555 3.25435C23.5378 2.82193 24.2201 2.41653 24.9321 1.98411C24.2794 1.82196 24.0124 1.87601 23.9531 2.2814C23.6268 2.2814 23.3005 2.2814 22.9741 2.2814C22.6775 2.2814 22.4105 2.2814 22.2028 2.03817C22.1138 1.93006 21.8765 1.87601 21.7282 1.90303C21.1052 1.95709 20.4526 2.03817 19.8296 2.09222C19.6219 2.11925 19.4143 2.14627 19.2066 2.14627C18.9693 2.14627 18.6133 2.30843 18.5243 1.98411C18.4056 1.60575 18.7913 1.49764 19.0879 1.44359C19.9186 1.2544 20.7492 1.06522 21.5799 0.930088C23.8938 0.55172 26.267 0.0922735 28.6996 0.0111947C29.3819 -0.0158316 30.0643 0.0111947 30.7466 0.0382209C31.5772 0.0922735 31.9035 0.470642 31.9035 1.22738C31.9035 1.71385 31.7552 2.11924 31.4585 2.49761C30.9246 3.17327 30.4202 3.84893 29.8566 4.47053C27.9283 6.55156 25.9704 8.60555 24.0421 10.6866C23.8641 10.8758 23.7158 11.0649 23.5081 11.3352Z" fill="#6250FE"/>
<path d="M16.4127 15.0013C18.6607 14.8875 20.9087 14.7737 23.1255 14.66C23.8748 14.6315 24.6241 14.6315 25.3734 14.6031C25.8418 14.6031 26.2789 14.6884 26.5287 15.0866C26.7785 15.5133 26.6848 15.9399 26.3726 16.3097C26.1228 16.6511 25.8106 16.9639 25.4983 17.2484C18.4421 24.075 11.5108 30.987 4.98536 38.2402C4.57947 38.6669 4.17358 39.0936 3.73647 39.5202C3.45547 39.8331 3.11203 40.0607 2.61247 39.89C2.14414 39.7193 2.01925 39.3496 2.01925 38.9513C2.05047 37.9558 2.11292 36.9602 2.20658 35.9647C2.42514 34.0305 2.67492 32.0678 2.89347 30.1336C3.14325 27.9719 3.33058 25.8385 3.61158 23.6768C3.89258 21.4297 4.26725 19.211 4.61069 16.9924C4.7668 15.9968 4.89169 15.0013 5.0478 13.9488C4.70436 13.9488 4.39214 13.9488 4.11114 13.9488C3.17447 13.9773 2.20658 14.0342 1.26992 14.0342C0.114695 14.0342 -0.259971 13.4937 0.17714 12.5266C0.458139 11.9293 0.770361 11.332 1.11381 10.7347C1.58214 9.96666 2.11292 9.19866 2.61247 8.45911C4.07991 6.24046 5.57858 4.02181 7.0148 1.80316C7.54558 1.03516 8.17002 0.665387 9.10669 0.636943C10.6054 0.580054 12.104 0.494722 13.6027 0.437833C17.0059 0.295612 20.4403 0.153391 23.8436 0.0396137C24.749 0.0111694 25.6545 0.0111694 26.5287 0.0111694C26.8409 0.0111694 27.1219 0.0111694 27.4341 0.0680579C28.4957 0.210279 28.9016 0.807608 28.4644 1.71782C28.2771 2.14449 27.9961 2.51426 27.7151 2.91248C25.8106 5.41558 23.625 7.71956 21.4082 9.9951C19.9408 11.4742 18.3797 12.8964 16.8498 14.3471C16.6625 14.5177 16.4751 14.6884 16.319 14.8875C16.3502 14.916 16.3815 14.9444 16.4127 15.0013Z" fill="#F2F1FF"/>
<path d="M5.10988 13.9488C4.73521 13.9488 4.45421 13.9488 4.14199 13.9488C3.20532 13.9488 2.23743 14.0057 1.30077 14.0057C0.20799 14.0057 -0.197898 13.4653 0.20799 12.5266C0.457768 11.9578 0.76999 11.3889 1.11343 10.82C1.61299 10.0235 2.14377 9.25555 2.64332 8.48755C4.14199 6.24046 5.64065 4.02181 7.07687 1.77471C7.54521 1.03516 8.20087 0.665387 9.13754 0.636943C10.605 0.580054 12.0724 0.494722 13.5399 0.437833C16.9743 0.295612 20.4088 0.181835 23.8744 0.0396137C24.7486 0.0111694 25.6229 0.0111694 26.4971 0.0111694C26.7469 0.0111694 26.9966 0.0111694 27.2464 0.0396137C28.5577 0.153391 29.0261 0.864497 28.3704 1.91693C27.8396 2.79871 27.184 3.65203 26.4971 4.44847C23.7495 7.57734 20.9395 10.6493 17.8173 13.4653C17.3178 13.9204 16.8494 14.3755 16.2874 14.8875C16.6933 15.0582 17.0368 14.9444 17.349 14.9444C19.878 14.8306 22.4382 14.7168 24.9672 14.6031C25.1857 14.6031 25.4043 14.5746 25.6541 14.6031C26.4971 14.6884 26.9342 15.3142 26.5595 16.0253C26.341 16.3951 26.0287 16.7364 25.7165 17.0493C23.25 19.467 20.7834 21.8848 18.3169 24.3026C13.977 28.5976 9.76198 33.0065 5.67187 37.5291C5.10987 38.1549 4.51665 38.7807 3.92343 39.378C3.79854 39.5202 3.64243 39.6624 3.48632 39.7478C2.95554 40.0891 2.36232 39.9469 2.17499 39.378C2.08132 39.0367 2.0501 38.6669 2.08132 38.2971C2.29988 35.9363 2.54965 33.5754 2.79943 31.243C3.08043 28.6545 3.33021 26.0945 3.67365 23.5061C3.95465 21.3159 4.32932 19.1257 4.67276 16.9639C4.82888 15.9684 4.95376 14.9728 5.10988 13.9488ZM3.70488 37.3869C3.76732 37.4154 3.82976 37.4438 3.89221 37.4438C10.324 30.1621 17.3178 23.307 24.2179 16.2528C23.5622 16.2528 23.0626 16.2244 22.5631 16.2528C20.159 16.3951 17.7861 16.5657 15.382 16.7079C15.1322 16.7364 14.8824 16.7364 14.6326 16.7079C13.6648 16.5942 13.2901 15.9115 13.7584 15.1151C13.977 14.7737 14.2892 14.4608 14.6014 14.148C16.4123 12.3844 18.3169 10.7062 20.0653 8.88577C22.1884 6.66712 24.1554 4.36314 26.1849 2.0876C26.341 1.91693 26.4659 1.68938 26.7156 1.37649C25.9351 1.37649 25.3419 1.34805 24.7486 1.37649C19.6594 1.5756 14.5702 1.77471 9.48098 1.94538C9.04387 1.97382 8.85654 2.14449 8.66921 2.42893C7.20176 4.64758 5.73432 6.86623 4.26688 9.08488C3.70488 9.93821 3.14288 10.7915 2.58088 11.6449C2.45599 11.844 2.3311 12.0715 2.17499 12.3844C2.54965 12.3844 2.83065 12.3844 3.08043 12.3844C3.98588 12.356 4.89132 12.2991 5.76554 12.3275C6.57732 12.356 6.92076 12.7542 6.8271 13.4937C6.67098 14.6315 6.48365 15.7977 6.29632 16.9355C5.92165 19.3533 5.51576 21.7426 5.20354 24.1603C4.73521 27.8865 4.32932 31.5843 3.89221 35.2536C3.82976 35.9647 3.76732 36.6758 3.70488 37.3869Z" fill="black"/>
</svg>
